<svg xmlns="http://www.w3.org/2000/svg" viewBox="0 0 280 168" fill="none" aria-hidden="true">
  <defs>
    <linearGradient id="bf-bg" x1="20" y1="0" x2="260" y2="168" gradientUnits="userSpaceOnUse">
      <stop stop-color="#f2f5e7" />
      <stop offset="0.45" stop-color="#ffffff" />
      <stop offset="1" stop-color="#edefe1" />
    </linearGradient>
    <linearGradient id="bf-sky" x1="0" y1="0" x2="1" y2="1">
      <stop stop-color="#4fafff" stop-opacity="0.35" />
      <stop offset="1" stop-color="#b9f474" stop-opacity="0.45" />
    </linearGradient>
    <linearGradient id="bf-leaf" x1="0" y1="0" x2="1" y2="1">
      <stop stop-color="#3e6a00" />
      <stop offset="1" stop-color="#8bc34a" />
    </linearGradient>
    <linearGradient id="bf-bar" x1="0" y1="0" x2="1" y2="0">
      <stop stop-color="#3e6a00" />
      <stop offset="1" stop-color="#8bc34a" />
    </linearGradient>
  </defs>
  <rect width="280" height="168" rx="28" fill="url(#bf-bg)" />
  <circle cx="48" cy="44" r="40" fill="url(#bf-sky)" opacity="0.88" />
  <circle cx="232" cy="128" r="36" fill="url(#bf-sky)" opacity="0.6" />
  <path
    d="M160 22c30 6 48 32 42 60-6 28-34 48-66 42s-48-34-42-62 36-46 66-40z"
    fill="#b9f474"
    opacity="0.2"
  />
  <rect x="52" y="34" width="176" height="112" rx="18" fill="#ffffff" fill-opacity="0.92" />
  <rect x="52" y="34" width="176" height="112" rx="18" stroke="#c2c9b4" stroke-opacity="0.55" stroke-width="1" />
  <rect x="68" y="48" width="88" height="7" rx="3.5" fill="#3e6a00" opacity="0.8" />
  <rect x="68" y="62" width="132" height="5" rx="2.5" fill="#424939" opacity="0.16" />
  <rect x="68" y="76" width="144" height="9" rx="4.5" fill="#e7eadc" />
  <rect x="68" y="76" width="96" height="9" rx="4.5" fill="url(#bf-bar)" />
  <rect x="154" y="72" width="14" height="17" rx="4" fill="#ffffff" stroke="#3e6a00" stroke-width="1.2" opacity="0.95" />
  <rect x="68" y="94" width="144" height="22" rx="9" fill="#ffffff" stroke="#c2c9b4" stroke-opacity="0.5" />
  <rect x="78" y="102" width="56" height="5" rx="2.5" fill="#3e6a00" opacity="0.3" />
  <rect x="152" y="102" width="52" height="5" rx="2.5" fill="#3e6a00" opacity="0.55" />
  <rect x="68" y="122" width="144" height="22" rx="9" fill="#ffffff" stroke="#c2c9b4" stroke-opacity="0.4" />
  <rect x="78" y="130" width="72" height="5" rx="2.5" fill="#424939" opacity="0.14" />
  <rect x="168" y="130" width="36" height="5" rx="2.5" fill="#424939" opacity="0.2" />
  <circle cx="248" cy="52" r="14" fill="#8bc34a" opacity="0.35" />
  <circle cx="248" cy="52" r="8" fill="#3e6a00" opacity="0.45" />
  <circle cx="262" cy="52" r="14" fill="#4fafff" opacity="0.25" />
  <circle cx="262" cy="52" r="8" fill="#00629d" opacity="0.35" />
  <path d="M254 52h14" stroke="#3e6a00" stroke-width="1.6" stroke-linecap="round" stroke-opacity="0.45" />
  <path
    d="M12 118c14-26 40-40 60-34-20 8-36 26-44 48-10-3-14-8-16-14z"
    fill="url(#bf-leaf)"
    opacity="0.88"
  />
  <path
    d="M22 106c18-14 40-18 58-10-22 4-40 20-50 40-6-8-8-18-8-30z"
    fill="url(#bf-leaf)"
    opacity="0.5"
  />
  <circle cx="218" cy="40" r="3.5" fill="#4fafff" opacity="0.5" />
  <circle cx="196" cy="26" r="2.5" fill="#8bc34a" opacity="0.55" />
  <path
    d="M24 138c64-8 128-10 192-6"
    stroke="#3e6a00"
    stroke-opacity="0.12"
    stroke-width="1.5"
    stroke-linecap="round"
  />
</svg>
